<?xml version="1.0" standalone="no"?>
<!DOCTYPE svg PUBLIC "-//W3C//DTD SVG 20010904//EN"
 "http://www.w3.org/TR/2001/REC-SVG-20010904/DTD/svg10.dtd">
<svg version="1.0" xmlns="http://www.w3.org/2000/svg"
 width="500.000000pt" height="500.000000pt" viewBox="0 0 500.000000 500.000000"
 preserveAspectRatio="xMidYMid meet">

<g transform="translate(0.000000,500.000000) scale(0.100000,-0.100000)"
fill="#000000" stroke="none">
<path d="M0 2500 l0 -2500 2500 0 2500 0 0 2500 0 2500 -2500 0 -2500 0 0
-2500z m2105 990 c121 -17 125 -19 125 -47 0 -22 -3 -25 -27 -19 -16 3 -84 9
-153 12 -103 5 -142 3 -220 -14 -377 -78 -652 -342 -742 -712 -27 -112 -29
-292 -4 -405 81 -360 351 -634 712 -721 76 -19 281 -24 377 -11 56 8 57 8 57
-17 0 -29 -5 -31 -125 -47 -468 -61 -937 258 -1065 722 -128 467 95 960 528
1169 95 46 189 72 332 94 50 7 136 5 205 -4z m81 -247 c9 -9 23 -31 31 -48 14
-30 12 -7 -3 30 -5 13 16 0 56 -33 35 -29 79 -62 99 -72 20 -10 50 -33 67 -52
35 -37 77 -112 67 -122 -3 -3 0 -12 7 -21 17 -20 1 -19 -24 2 -18 15 -18 14 2
-8 35 -40 26 -54 -13 -20 -20 17 -39 31 -43 31 -4 -1 10 -14 31 -31 20 -17 37
-38 37 -46 0 -13 -3 -13 -17 -2 -17 13 -17 13 0 -7 28 -33 19 -40 -13 -9 -16
15 -29 31 -28 34 2 20 -5 32 -24 42 -22 11 -22 11 2 -16 22 -25 23 -27 5 -21
-13 4 -4 -9 24 -37 60 -62 48 -77 -19 -22 -30 24 -93 61 -140 81 -70 31 -95
37 -140 34 -30 -1 -68 -2 -85 -1 -90 5 -114 2 -153 -18 l-43 -22 3 68 3 68 65
-1 c41 -1 58 2 45 7 -11 4 -40 8 -65 9 -37 0 -42 3 -27 11 11 6 38 8 68 4 44
-6 49 -5 49 12 0 10 15 50 33 88 31 64 35 68 45 49 9 -17 8 -29 -8 -61 -10
-22 -22 -51 -25 -66 -4 -15 -14 -27 -24 -28 -9 0 -3 -6 14 -14 46 -21 118 -19
148 5 28 22 51 79 44 107 -3 13 -5 10 -6 -7 -1 -14 -8 -38 -16 -55 l-13 -30
-1 26 c-1 15 -10 47 -21 72 -13 28 -18 57 -15 74 5 27 5 27 -5 4 -6 -13 -8
-32 -5 -41 9 -27 -44 -13 -57 16 -22 47 49 76 88 37z m430 -358 c96 -60 112
-103 79 -211 -17 -55 -63 -109 -160 -185 -79 -62 -124 -123 -159 -215 -25 -68
-30 -73 -74 -92 -26 -11 -65 -23 -87 -27 -69 -11 -138 -37 -180 -66 -69 -47
-105 -85 -105 -113 0 -47 -96 -71 -172 -42 -27 11 -79 18 -132 19 -99 3 -109
10 -104 74 6 71 68 70 118 -2 l31 -45 -33 -1 c-28 0 -30 -2 -13 -9 11 -5 33
-9 49 -9 24 -1 27 1 16 14 -7 9 -11 17 -9 18 2 2 42 16 89 32 190 64 340 150
414 237 36 42 47 65 24 52 -8 -4 -10 -3 -5 2 5 5 13 9 19 9 6 0 28 33 49 74
22 40 55 91 74 112 19 22 35 44 35 49 0 5 20 36 45 68 49 63 77 131 96 235 7
37 15 67 17 67 3 0 38 -20 78 -45z m-546 5 c43 -36 27 -38 -35 -5 -44 23 -49
24 -83 10 -50 -21 -58 -30 -86 -88 -25 -51 -25 -52 -26 -19 0 45 13 67 62 102
57 42 120 42 168 0z m247 -21 c76 -38 182 -118 139 -105 -16 6 -17 4 -6 -9 7
-8 16 -12 21 -9 5 3 6 -2 3 -10 -8 -22 -13 -20 -54 16 -34 32 -34 32 3 -8 28
-30 35 -44 26 -49 -7 -5 -17 -2 -23 6 -6 8 -20 21 -31 29 -11 8 -4 -3 14 -23
19 -20 30 -37 24 -37 -7 0 -15 4 -18 10 -3 5 -16 15 -28 21 -14 6 -10 0 11
-18 18 -15 32 -31 32 -35 0 -16 -27 -7 -46 13 -10 12 -37 35 -59 51 -23 17
-12 4 25 -31 66 -62 73 -78 17 -39 l-32 21 27 -29 27 -29 -19 -25 -20 -25 -65
66 c-36 37 -65 64 -65 60 0 -4 27 -33 60 -66 32 -32 57 -63 53 -67 -3 -5 -17
1 -30 14 l-26 23 18 -28 c13 -21 15 -31 7 -39 -9 -9 -21 -2 -48 28 l-36 39 30
-40 c28 -37 29 -42 14 -63 l-15 -22 -58 55 c-31 30 -63 55 -70 55 -6 0 6 -13
27 -28 54 -39 104 -99 104 -123 0 -17 -10 -11 -60 32 -32 29 -89 73 -126 98
-72 49 -94 78 -53 68 13 -3 36 -9 52 -12 39 -10 35 9 -17 70 l-45 52 55 -5
c48 -4 54 -2 54 15 0 25 -19 43 -47 43 -16 0 -21 4 -17 15 3 8 -4 26 -15 41
-31 39 -26 45 21 24 23 -10 46 -16 50 -14 13 8 9 31 -7 44 -28 23 -4 33 69 27
56 -5 88 -15 153 -48z m-346 -41 c61 -34 50 -49 -20 -27 -20 7 -42 13 -48 15
-17 4 -5 34 14 34 8 0 33 -10 54 -22z m1187 -56 c9 -7 8 -13 -8 -27 -11 -10
-20 -24 -20 -32 0 -15 -2 -15 -24 -7 -21 8 -20 50 2 63 21 13 33 13 50 3z
m-1070 -14 c25 -25 9 -29 -85 -23 -88 6 -101 4 -130 -14 -33 -21 -46 -45 -18
-35 8 4 15 1 15 -6 0 -18 -34 -7 -38 13 -5 25 24 55 62 66 47 14 180 13 194
-1z m994 -17 c-3 -21 -11 -31 -28 -35 -14 -4 -41 -22 -62 -40 -32 -29 -40 -32
-54 -22 -16 12 -15 15 10 38 27 26 121 88 132 88 4 0 5 -13 2 -29z m109 -18
c0 -25 1 -26 9 -8 7 17 13 10 38 -45 17 -36 48 -89 71 -118 40 -55 61 -118 61
-189 0 -40 -15 -35 -23 7 -2 14 -3 4 0 -22 2 -29 0 -48 -7 -48 -5 0 -10 14
-10 31 0 30 -39 134 -47 125 -3 -2 3 -18 12 -36 21 -41 36 -132 24 -144 -5 -6
-9 1 -9 20 0 16 -4 34 -8 41 -4 6 -7 -15 -7 -48 0 -49 3 -58 16 -54 11 4 25
-8 43 -35 14 -22 29 -40 31 -40 7 0 -24 49 -47 76 -18 20 -18 21 3 40 21 19
21 19 55 -21 19 -22 39 -59 45 -83 7 -23 14 -41 16 -38 12 12 -22 89 -57 129
-26 30 -36 48 -29 53 6 3 14 2 18 -3 3 -5 25 -34 49 -65 53 -72 56 -115 12
-176 -17 -22 -45 -50 -63 -61 -35 -21 -175 -61 -216 -61 -57 0 -176 -50 -236
-99 -115 -93 -179 -111 -384 -112 -194 0 -338 23 -389 63 -34 27 -77 87 -68
95 2 2 32 -1 67 -7 35 -6 143 -13 239 -16 163 -5 181 -4 272 19 83 22 111 35
201 95 64 43 128 77 163 87 73 21 146 57 206 103 43 33 46 37 41 71 -10 65
-22 80 -20 26 2 -46 -12 -74 -22 -44 -2 6 1 9 7 5 8 -5 8 2 1 24 -13 35 -24
41 -13 8 3 -13 -12 5 -35 39 -62 91 -152 169 -220 190 -31 10 -70 28 -88 41
-20 14 -57 27 -100 34 -37 5 -69 11 -71 13 -2 2 6 21 18 44 16 32 26 41 48 42
17 1 20 3 9 6 -23 6 -12 23 15 23 23 0 74 -29 133 -76 82 -65 129 -77 190 -48
33 15 75 77 62 90 -4 4 -7 0 -7 -9 0 -18 -47 -77 -61 -77 -6 0 -5 9 2 21 6 12
8 36 5 55 -5 22 -1 44 9 64 20 38 45 40 46 3z m-1186 -18 c30 -25 28 -49 -3
-27 -9 7 -30 21 -47 32 -30 20 -30 20 -5 20 14 -1 38 -12 55 -25z m52 -67 c22
-23 10 -23 -72 -3 -68 16 -123 6 -162 -28 -20 -18 -23 -18 -23 -4 0 9 9 26 21
38 19 19 30 20 120 17 77 -2 102 -7 116 -20z m6 -104 c112 -79 139 -107 130
-131 -6 -16 -5 -16 10 -4 18 14 19 13 21 -31 1 -15 -1 -25 -5 -22 -11 7 -30
-22 -24 -38 11 -28 -112 -129 -224 -186 -57 -28 -110 -52 -118 -52 -8 0 -29
-6 -46 -14 -64 -29 -110 -46 -126 -46 -9 0 -24 14 -33 30 -18 31 -81 66 -98
55 -15 -9 -12 22 4 53 8 15 51 63 96 107 88 87 112 123 145 229 19 60 28 72
66 98 59 40 87 33 202 -48z m823 -17 c33 -35 44 -67 25 -67 -5 0 -19 16 -31
35 -41 66 -122 82 -190 38 -14 -9 -36 -23 -49 -32 -23 -15 -23 -14 -13 4 28
53 58 65 150 62 71 -2 75 -4 108 -40z m-119 -24 c17 -21 33 -44 38 -52 14 -25
-31 -2 -71 35 -30 28 -34 38 -23 45 22 14 25 12 56 -28z m104 -18 c39 -44 63
-47 57 -5 -6 38 6 38 79 3 104 -51 256 -248 223 -288 -11 -13 -14 -13 -26 2
-12 16 -12 16 -8 -7 4 -16 -4 -8 -22 22 -15 27 -29 46 -31 44 -2 -2 6 -20 18
-40 12 -21 18 -43 14 -54 -6 -15 -8 -14 -21 8 -14 24 -15 24 -11 3 3 -13 1
-26 -4 -29 -5 -3 -9 1 -9 8 0 8 -7 23 -15 34 -14 18 -14 17 -5 -9 15 -41 12
-55 -6 -32 -16 20 -16 20 -9 -2 4 -16 2 -23 -8 -23 -7 0 -18 17 -24 38 l-11
37 5 -36 c7 -51 -21 -62 -41 -16 l-15 32 6 -32 c5 -29 3 -33 -16 -33 -15 0
-21 6 -21 20 0 21 -26 80 -36 80 -2 0 1 -10 7 -22 7 -13 15 -37 19 -55 13 -54
-12 -45 -48 19 -43 76 -51 75 -11 -2 28 -54 31 -80 10 -80 -4 0 -15 15 -25 33
-9 17 -14 23 -10 12 28 -84 8 -86 -31 -5 -16 34 -35 66 -41 71 -7 6 3 -18 22
-53 34 -64 41 -92 25 -102 -5 -3 -22 22 -39 56 -16 35 -50 93 -75 131 -26 37
-47 72 -47 77 0 17 20 11 55 -16 35 -27 61 -24 50 5 -4 9 -11 30 -15 46 -4 17
-11 38 -15 49 -7 16 -2 15 39 -9 47 -27 76 -28 76 -1 0 16 -22 41 -42 49 -10
4 -10 8 1 15 11 8 11 16 2 42 -21 61 -13 65 30 15z m-115 -48 c68 -25 104 -47
104 -62 0 -23 -14 -19 -94 25 -78 43 -109 49 -166 36 -31 -8 -33 -7 -22 7 24
28 94 26 178 -6z m-141 -27 c8 -13 -5 -13 -25 0 -13 8 -13 10 2 10 9 0 20 -4
23 -10z m138 -38 c20 -34 17 -53 -5 -34 -7 6 -21 25 -32 42 -17 31 -17 32 0
28 10 -1 27 -18 37 -36z m-107 1 c66 -27 145 -85 133 -98 -4 -3 -37 14 -73 39
-67 46 -131 64 -181 52 -29 -7 -32 1 -7 20 26 20 55 17 128 -13z m-5 -69 c28
-14 139 -169 139 -193 0 -6 -8 -15 -17 -20 -10 -6 -13 -11 -6 -11 6 0 15 5 18
11 5 6 13 2 22 -11 14 -19 13 -23 -3 -36 -18 -14 -18 -15 2 -9 38 10 22 -31
-26 -67 -76 -57 -141 -71 -325 -70 -88 1 -203 7 -255 14 l-94 13 -7 32 c-8 43
-33 80 -59 88 -11 3 -20 10 -20 16 0 19 79 59 155 77 132 33 191 60 249 113
29 27 64 53 77 58 37 15 117 13 150 -5z m-590 -294 c9 -14 20 -44 23 -68 6
-41 6 -42 -15 -32 -11 7 -23 10 -25 7 -3 -2 9 -10 25 -17 16 -6 32 -19 35 -27
4 -9 1 -13 -6 -9 -7 2 -38 12 -68 21 -30 10 -61 24 -67 33 -18 22 -16 73 3
100 21 31 70 27 95 -8z m596 -376 c3 -8 -2 -23 -11 -32 -15 -15 -17 -15 -33 0
-13 14 -14 20 -3 32 16 20 39 20 47 0z m-216 -56 l-3 -53 36 44 c28 33 34 46
24 52 -8 5 5 9 32 8 33 0 40 -2 25 -9 -11 -4 -31 -19 -44 -33 l-23 -26 36 -60
c20 -33 42 -62 49 -64 6 -3 -12 -6 -41 -6 -34 -1 -51 3 -47 9 4 6 -4 27 -16
47 -25 39 -33 32 -27 -23 l4 -34 -46 1 c-25 0 -39 3 -32 6 16 6 17 164 0 181
-9 9 -2 12 33 12 l44 0 -4 -52z m619 21 l0 -30 -23 27 c-16 18 -30 25 -40 21
-24 -9 -21 -24 10 -50 80 -66 87 -83 53 -117 -13 -13 -33 -20 -59 -20 -58 0
-71 8 -71 44 1 30 1 30 15 11 27 -38 36 -45 55 -45 28 0 25 26 -7 53 -53 44
-63 57 -63 81 0 39 25 56 81 56 48 0 49 -1 49 -31z m128 -30 c15 -1 15 -2 0
-6 -14 -4 -18 -15 -18 -57 0 -59 6 -71 28 -53 13 10 14 9 10 -3 -3 -9 -20 -16
-41 -18 -44 -4 -54 12 -58 87 -3 47 0 55 18 62 11 4 24 16 29 26 7 15 8 14 12
-9 2 -17 10 -28 20 -29z m-526 -64 l3 -75 -35 0 -35 0 0 67 c0 70 6 81 47 82
14 1 17 -12 20 -74z m100 53 c2 -12 9 -23 17 -26 10 -3 13 2 9 22 -5 23 -2 26
25 26 l30 0 -27 -26 c-14 -15 -26 -32 -26 -38 0 -15 28 -57 48 -73 13 -11 8
-13 -33 -13 -26 0 -45 3 -42 6 10 10 -13 45 -24 38 -6 -3 -9 -15 -6 -25 4 -15
0 -19 -23 -19 l-28 0 29 31 29 31 -31 44 -30 44 40 0 c33 0 40 -4 43 -22z
m597 5 c32 -27 37 -73 11 -106 -12 -15 -30 -27 -40 -27 -16 0 -17 4 -8 35 12
38 1 96 -19 102 -17 6 -28 -63 -15 -103 9 -30 8 -34 -8 -34 -10 0 -28 12 -40
27 -41 52 -3 123 65 123 18 0 42 -8 54 -17z m176 -13 c0 -16 -6 -26 -17 -28
-11 -2 -18 3 -18 12 0 9 -7 16 -15 16 -19 0 -21 -90 -3 -108 9 -9 1 -12 -37
-12 -38 0 -46 3 -37 12 16 16 16 105 0 115 -16 9 30 19 87 19 36 -1 40 -4 40
-26z m149 8 c18 -26 13 -38 -18 -38 -20 0 -22 4 -18 26 4 20 1 25 -9 22 -20
-7 -21 -75 -2 -94 11 -10 25 -13 42 -9 25 6 25 6 7 -14 -42 -46 -126 -12 -126
51 0 64 90 105 124 56z"/>
<path d="M2390 3063 c32 -23 59 -50 88 -88 13 -16 20 -23 16 -15 -18 37 -69
92 -98 106 -31 14 -31 14 -6 -3z"/>
<path d="M2196 2999 c-10 -6 -43 -9 -73 -7 -30 3 -48 1 -41 -3 21 -14 103 -10
124 6 22 17 17 19 -10 4z"/>
<path d="M2409 2986 c27 -29 33 -32 25 -13 -2 7 -14 19 -27 26 -21 13 -21 12
2 -13z"/>
<path d="M2332 2774 c10 -10 20 -15 24 -12 3 4 -5 12 -18 18 -22 12 -22 12 -6
-6z"/>
<path d="M2324 2622 c17 -18 34 -32 38 -32 15 0 0 18 -35 41 l-32 22 29 -31z"/>
<path d="M2240 2620 c0 -5 5 -10 11 -10 5 0 7 5 4 10 -3 6 -8 10 -11 10 -2 0
-4 -4 -4 -10z"/>
<path d="M2180 2565 c13 -14 26 -25 28 -25 3 0 -5 11 -18 25 -13 14 -26 25
-28 25 -3 0 5 -11 18 -25z"/>
<path d="M2230 2516 c0 -2 7 -9 15 -16 9 -7 15 -8 15 -2 0 5 -7 12 -15 16 -8
3 -15 4 -15 2z"/>
<path d="M2820 2666 c0 -2 15 -9 33 -15 29 -10 30 -9 13 4 -18 14 -46 20 -46
11z"/>
<path d="M2925 2601 c22 -23 49 -47 60 -53 11 -6 18 -9 15 -6 -3 2 -30 26 -60
53 -54 49 -54 49 -15 6z"/>
<path d="M3021 2529 c8 -5 34 -8 59 -8 53 1 44 6 -24 12 -30 3 -43 1 -35 -4z"/>
<path d="M3318 2449 c9 -23 18 -37 20 -31 3 10 -24 72 -32 72 -3 0 3 -19 12
-41z"/>
<path d="M3214 2397 c20 -27 36 -53 36 -59 0 -6 3 -9 6 -6 9 9 -21 60 -51 88
-23 20 -21 16 9 -23z"/>
<path d="M3250 2435 c0 -5 10 -21 21 -35 13 -17 17 -18 10 -5 -17 33 -31 51
-31 40z"/>
<path d="M3207 2340 c9 -22 18 -38 20 -36 5 5 -24 76 -31 76 -2 0 3 -18 11
-40z"/>
<path d="M3405 2182 c12 -26 27 -58 33 -72 11 -24 11 -24 5 5 -7 34 -38 101
-51 109 -5 3 1 -16 13 -42z"/>
<path d="M3370 2128 c11 -24 20 -51 20 -60 0 -9 4 -19 8 -22 5 -3 6 9 4 26 -3
20 -1 29 6 24 6 -4 8 2 4 16 -5 20 -6 20 -12 3 -5 -15 -8 -13 -19 14 -8 17
-17 34 -22 37 -5 2 0 -15 11 -38z"/>
<path d="M2136 2428 l-17 -33 20 24 c18 20 27 41 18 41 -1 0 -11 -15 -21 -32z"/>
<path d="M2130 2373 c-40 -42 -41 -44 -11 -22 30 22 70 69 59 69 -2 0 -24 -21
-48 -47z"/>
<path d="M2192 2367 c-25 -27 -30 -46 -6 -27 15 13 38 50 31 50 -2 0 -13 -10
-25 -23z"/>
<path d="M2131 2334 c-13 -13 -19 -24 -14 -24 12 0 48 38 42 44 -2 3 -15 -6
-28 -20z"/>
<path d="M3017 2246 c15 -30 29 -54 31 -52 5 5 -39 95 -49 102 -5 3 3 -19 18
-50z"/>
<path d="M3160 2264 c0 -6 7 -19 16 -30 14 -18 14 -18 3 6 -14 31 -19 36 -19
24z"/>
<path d="M3191 2265 c0 -5 8 -26 19 -45 11 -19 19 -30 19 -25 0 6 -8 26 -19
45 -11 19 -19 31 -19 25z"/>
<path d="M3060 2226 c0 -8 4 -17 9 -20 5 -4 7 3 4 14 -6 23 -13 26 -13 6z"/>
<path d="M2851 2154 c0 -11 3 -14 6 -6 3 7 2 16 -1 19 -3 4 -6 -2 -5 -13z"/>
<path d="M2775 2060 c-3 -5 -28 -21 -55 -36 -28 -15 -48 -29 -46 -31 6 -6 78
36 101 58 11 10 16 19 13 19 -4 0 -9 -4 -13 -10z"/>
<path d="M2785 1994 c-11 -9 -37 -23 -58 -31 -21 -9 -36 -18 -33 -20 7 -7 90
32 105 50 17 21 12 21 -14 1z"/>
<path d="M2658 1933 c7 -3 16 -2 19 1 4 3 -2 6 -13 5 -11 0 -14 -3 -6 -6z"/>
<path d="M2603 1923 c9 -2 23 -2 30 0 6 3 -1 5 -18 5 -16 0 -22 -2 -12 -5z"/>
<path d="M2382 1914 c7 -7 179 -7 186 1 3 3 -39 5 -93 5 -54 0 -96 -3 -93 -6z"/>
</g>
</svg>
